<svg xmlns="http://www.w3.org/2000/svg" xmlns:xlink="http://www.w3.org/1999/xlink" version="1.1" x="0px" y="0px" viewBox="5.0 -10.0 100.0 135.0" xml:space="preserve">
</g>
	<g>
		<path fill-rule="evenodd" clip-rule="evenodd" d="M62.095,7.185c0.239,0,0.479,0,0.72,0c1.432,1.37,0.675,4.928,1.201,7.203    c4.015,0.948,5.479,4.446,8.884,6.003c0,0.56,0,1.12,0,1.681c-0.907,3.094-4.008,3.996-5.763,6.243    c0.559,6.188,2.306,11.511,0,16.566c-1.341,2.94-4.285,5.147-4.803,9.125c-0.658,5.069,0.271,10.359,0.24,16.807    c0.783,0.979,2.866,0.655,3.843,1.441c-0.243,2.18-1.63,2.025-1.44,4.321c-5.872,2.736-8.513-3.094-9.846-7.203    c-1.099,1.142-1.639,2.841-2.641,4.081c2.914-0.039,5.831,0.679,4.803,3.843c-7.239,1.792-15.75,0.649-24.491,0.24    c-1.191,1.806-0.661,4.301,0.479,5.762c4.553,5.831,17.645,2.967,23.771,3.362c-2.045,2.997-7.069,3.016-10.805,4.321    c-2,0-4.001,0-6.003,0C34.34,89.604,29.491,87.17,28,81.378c0-1.201,0-2.401,0-3.602c0.663-2.248,2.376-5.044,2.4-7.684    c0.069-7.122-2.465-14.111-0.48-20.889c1.446-4.936,5.468-11.985,9.604-14.407c1.701-0.997,3.866-1.24,5.523-2.161    c2.37-1.316,5.45-4.096,6.003-6.243c0.408-1.589-0.007-3.074,0.239-4.321c0.859-4.356,3.183-6.883,6.963-8.644    C59.184,10.996,60.364,8.815,62.095,7.185z"/>
	</g>
</svg>